<svg width="24" height="24" viewBox="0 0 24 24" fill="none" xmlns="http://www.w3.org/2000/svg">
<g clip-path="url(#clip0)">
<path d="M21.7822 5.07323C21.7818 5.06549 21.781 5.05776 21.7797 5.05007C21.7497 5.00722 21.7128 4.97034 21.6819 4.92834C21.4578 4.6231 21.2206 4.32931 20.9703 4.04693C20.9017 3.96976 20.8331 3.89345 20.7628 3.81799C20.505 3.54194 20.2347 3.27869 19.9517 3.02836C19.8994 2.98204 19.8505 2.93406 19.7982 2.8886C19.101 2.29122 18.3374 1.77568 17.5227 1.35218C17.4901 1.33505 17.4559 1.32048 17.4224 1.3033C17.0596 1.11893 16.6876 0.953195 16.3078 0.806853C16.222 0.776007 16.144 0.746819 16.0626 0.721098C15.7248 0.599372 15.3818 0.492768 15.0337 0.401285C14.9308 0.373856 14.8279 0.345572 14.7233 0.321558C14.3804 0.241831 14.0375 0.180943 13.6867 0.131208C13.5804 0.115785 13.4758 0.0951876 13.3686 0.0823268C12.4654 -0.0274423 11.5523 -0.0274423 10.649 0.0823268C10.5418 0.0951876 10.4372 0.115785 10.3309 0.131208C9.98022 0.180943 9.63383 0.241831 9.29427 0.321558C9.18968 0.345572 9.08679 0.373856 8.98391 0.401285C8.6335 0.492718 8.29058 0.599322 7.95504 0.721098C7.86928 0.750235 7.79127 0.779423 7.70983 0.806853C7.33008 0.953195 6.95802 1.11888 6.59521 1.3033C6.56175 1.32043 6.52749 1.335 6.49488 1.35218C5.67747 1.77523 4.9114 2.29072 4.21164 2.8886C4.15934 2.93401 4.11046 2.98204 4.05816 3.02836C3.77236 3.27985 3.50198 3.54309 3.24707 3.81799C3.17679 3.89345 3.10817 3.96976 3.03959 4.04693C2.78866 4.32871 2.55144 4.6225 2.32798 4.92829C2.29713 4.97029 2.26026 5.00717 2.23022 5.05002C2.2263 5.0575 2.22283 5.06524 2.21992 5.07318C-0.737368 9.21763 -0.737368 14.7824 2.21992 18.9268C2.22283 18.9348 2.22625 18.9425 2.23022 18.95C2.26021 18.9929 2.29708 19.0297 2.32798 19.0717C2.55149 19.377 2.78866 19.6708 3.03959 19.9531C3.10817 20.0303 3.17679 20.1066 3.24707 20.1821C3.50545 20.4581 3.77578 20.7214 4.05816 20.9717C4.11046 21.018 4.15934 21.066 4.21164 21.1115C4.90893 21.7088 5.67244 22.2244 6.48715 22.6479C6.51975 22.665 6.55401 22.6796 6.58747 22.6968C6.95029 22.8811 7.3223 23.0469 7.70209 23.1932C7.78785 23.2241 7.86587 23.2533 7.9473 23.279C8.2851 23.4007 8.62807 23.5073 8.97617 23.5988C9.07905 23.6262 9.18194 23.6545 9.28654 23.6785C9.62951 23.7582 9.97243 23.8191 10.3231 23.8689C10.4294 23.8843 10.534 23.9049 10.6412 23.9177C11.5445 24.0275 12.4576 24.0275 13.3609 23.9177C13.4681 23.9049 13.5727 23.8843 13.679 23.8689C14.0297 23.8191 14.3761 23.7582 14.7156 23.6785C14.8202 23.6545 14.9231 23.6262 15.026 23.5988C15.3769 23.5074 15.7199 23.4008 16.0548 23.279C16.1406 23.2498 16.2186 23.2206 16.3001 23.1932C16.6798 23.0469 17.0519 22.8812 17.4147 22.6968C17.4481 22.6796 17.4824 22.6651 17.515 22.6479C18.3297 22.2243 19.0932 21.7088 19.7905 21.1115C19.8428 21.066 19.8917 21.018 19.944 20.9717C20.2298 20.7208 20.5002 20.4576 20.7551 20.1821C20.8254 20.1066 20.894 20.0303 20.9626 19.9531C21.2135 19.6708 21.4507 19.377 21.6742 19.0717C21.705 19.0297 21.7419 18.9929 21.7719 18.95C21.7759 18.9425 21.7793 18.9348 21.7822 18.9268C24.7395 14.7825 24.7395 9.21768 21.7822 5.07323ZM20.804 6.69545C21.6239 8.04589 22.1191 9.56829 22.2503 11.1427H17.1146C17.0517 10.1211 16.8909 9.10791 16.6345 8.11702C18.0852 7.84534 19.4894 7.36657 20.804 6.69545ZM14.1866 1.94805C14.2346 1.9592 14.2809 1.97463 14.3289 1.98578C14.6359 2.05782 14.9403 2.14011 15.2378 2.24299C15.2832 2.25842 15.3278 2.27645 15.3724 2.29273C15.6674 2.39562 15.958 2.50966 16.2427 2.6357C16.2924 2.65886 16.3413 2.68458 16.391 2.70774C16.6637 2.83751 16.93 2.97782 17.1901 3.12873L17.3616 3.23247C17.6085 3.38339 17.8486 3.54485 18.0818 3.71691C18.1418 3.76062 18.2018 3.80267 18.261 3.85065C18.4896 4.02211 18.7085 4.20588 18.9177 4.40195C18.9726 4.45169 19.0292 4.50057 19.0832 4.55201C19.3027 4.76035 19.5119 4.98069 19.7143 5.20877C19.74 5.23876 19.7674 5.26619 19.7931 5.29453C18.6322 5.84779 17.4023 6.24286 16.1364 6.46913C15.5499 4.85691 14.7752 3.31954 13.8283 1.88897C13.9474 1.91037 14.0692 1.92238 14.1866 1.94805ZM8.60672 11.1427C8.67434 10.215 8.83229 9.2961 9.0783 8.39906C10.0497 8.51445 11.0272 8.57167 12.0054 8.57052C12.9846 8.57022 13.963 8.51154 14.9351 8.39474C15.1807 9.29324 15.3378 10.2136 15.4041 11.1427H8.60672ZM15.4041 12.8575C15.3365 13.7852 15.1785 14.7041 14.9325 15.6011C13.9611 15.4857 12.9837 15.4285 12.0054 15.4297C11.0263 15.4285 10.048 15.4858 9.07569 15.6011C8.83038 14.704 8.67334 13.7851 8.60667 12.8575H15.4041ZM12.0054 2.27047C12.9811 3.65336 13.7836 5.1507 14.3949 6.72891C13.6012 6.81321 12.8036 6.85556 12.0054 6.85581C11.2081 6.85486 10.4113 6.81225 9.61841 6.72806C10.2305 5.1509 11.032 3.65407 12.0054 2.27047ZM4.29749 5.20787C4.499 4.97979 4.70904 4.75944 4.92853 4.55111C4.98253 4.49967 5.03915 4.45079 5.09401 4.40105C5.30551 4.20844 5.52444 4.02467 5.75076 3.84974C5.80994 3.80428 5.86993 3.76399 5.92996 3.71601C6.16317 3.54455 6.40325 3.38304 6.65017 3.23157L6.82163 3.12783C7.08171 2.97581 7.34807 2.83545 7.62071 2.70684C7.67044 2.68368 7.71932 2.65796 7.76906 2.6348C8.05371 2.50619 8.34438 2.39215 8.63933 2.29183C8.68389 2.27555 8.72508 2.25751 8.77391 2.24209C9.07142 2.14262 9.3741 2.06033 9.68276 1.98487C9.73079 1.97372 9.77706 1.9583 9.82594 1.948C9.94339 1.92228 10.0652 1.91027 10.1843 1.88882C9.23705 3.31964 8.46209 4.85731 7.87536 6.46983C6.60943 6.24356 5.37951 5.8485 4.21862 5.29523C4.24434 5.26529 4.27177 5.23786 4.29749 5.20787ZM3.20688 6.69545C4.52115 7.36652 5.92504 7.84529 7.3755 8.11702C7.11934 9.10796 6.95883 10.1212 6.89623 11.1427H1.76049C1.89182 9.56829 2.38696 8.04589 3.20688 6.69545ZM3.20688 17.3048C2.38691 15.9543 1.89177 14.4319 1.76049 12.8575H6.89623C6.95913 13.8791 7.11989 14.8923 7.37635 15.8832C5.92564 16.1548 4.52145 16.6336 3.20688 17.3048ZM9.82423 22.0521C9.7762 22.041 9.72993 22.0255 9.68191 22.0144C9.37495 21.9424 9.07057 21.8601 8.77306 21.7572C8.72759 21.7418 8.68303 21.7237 8.63842 21.7074C8.34348 21.6046 8.05285 21.4905 7.76816 21.3645C7.71842 21.3413 7.66954 21.3156 7.6198 21.2924C7.34717 21.1627 7.0808 21.0224 6.82072 20.8714L6.64926 20.7677C6.40235 20.6168 6.16226 20.4553 5.92906 20.2833C5.86902 20.2396 5.80904 20.1975 5.74986 20.1495C5.52123 19.9781 5.30229 19.7943 5.0931 19.5982C5.03825 19.5485 4.98163 19.4996 4.92762 19.4482C4.70813 19.2398 4.49894 19.0195 4.29659 18.7914C4.27087 18.7614 4.24344 18.734 4.21771 18.7056C5.37865 18.1524 6.60852 17.7573 7.87446 17.531C8.46093 19.1433 9.23565 20.6806 10.1825 22.1112C10.0634 22.0899 9.94168 22.0778 9.82423 22.0521ZM12.0054 21.7297C11.0297 20.3469 10.2272 18.8495 9.61584 17.2713C11.2037 17.1004 12.8053 17.1004 14.3932 17.2713L14.3923 17.2722C13.7803 18.8493 12.9788 20.3461 12.0054 21.7297ZM19.7133 18.7923C19.5118 19.0204 19.3018 19.2407 19.0823 19.4491C19.0283 19.5005 18.9717 19.5494 18.9168 19.5991C18.7053 19.7923 18.4864 19.9761 18.2601 20.1504C18.2009 20.1958 18.1409 20.2405 18.0809 20.2842C17.8477 20.4556 17.6076 20.6171 17.3607 20.7686L17.1892 20.8723C16.9297 21.0238 16.6633 21.1641 16.3901 21.2933C16.3404 21.3165 16.2915 21.3422 16.2418 21.3654C15.9571 21.494 15.6665 21.608 15.3715 21.7083C15.327 21.7246 15.2858 21.7427 15.2369 21.7581C14.9394 21.8576 14.6367 21.9398 14.3281 22.0153C14.2801 22.0265 14.2338 22.0419 14.1849 22.0522C14.0674 22.0779 13.9457 22.0899 13.8265 22.1114C14.7734 20.6808 15.5481 19.1434 16.1346 17.5312C17.4005 17.7575 18.6304 18.1525 19.7913 18.7058C19.7665 18.7349 19.7391 18.7623 19.7133 18.7923ZM20.804 17.3048C19.4897 16.6337 18.0858 16.1549 16.6353 15.8832C16.8915 14.8923 17.052 13.8791 17.1146 12.8575H22.2503C22.119 14.4319 21.6239 15.9543 20.804 17.3048Z" fill="#2E2E2E"/>
</g>
<defs>
<clipPath id="clip0">
<rect width="24" height="24" fill="white"/>
</clipPath>
</defs>
</svg>
