<svg width="24" height="24" viewBox="0 0 24 24" fill="none" xmlns="http://www.w3.org/2000/svg">
<g clip-path="url(#clip0)">
<path d="M11.6274 1.95458C11.7599 1.61518 12.2401 1.61518 12.3726 1.95458L14.9538 8.56705C15.0106 8.7127 15.1471 8.81187 15.3032 8.82093L22.3897 9.2324C22.7534 9.25352 22.9018 9.71028 22.62 9.94116L17.1288 14.4394C17.0078 14.5384 16.9557 14.6989 16.9953 14.8501L18.7938 21.7169C18.8861 22.0694 18.4976 22.3517 18.1909 22.155L12.216 18.3225C12.0844 18.2381 11.9156 18.2381 11.784 18.3225L5.80912 22.155C5.50244 22.3517 5.1139 22.0694 5.20621 21.7169L7.00472 14.8501C7.04433 14.6989 6.99219 14.5384 6.87125 14.4394L1.38003 9.94116C1.09819 9.71028 1.2466 9.25352 1.61033 9.2324L8.69678 8.82093C8.85287 8.81187 8.98936 8.7127 9.04622 8.56705L11.6274 1.95458Z" stroke="#2E2E2E" stroke-width="2"/>
</g>
<defs>
<clipPath id="clip0">
<rect width="24" height="24" fill="white"/>
</clipPath>
</defs>
</svg>
