<svg width="24" height="24" viewBox="0 0 24 24" fill="none" xmlns="http://www.w3.org/2000/svg">
<g clip-path="url(#clip0)">
<path d="M21.4286 3H2.57143C1 3 0 4 0 5.99916V17.9991C0 19.4193 1.15127 21 2.57143 21H21.4286C22.8487 21 24 19.4193 24 17.9991V5.99916C24 4 23.5 3 21.4286 3ZM22 18C22 18.4734 21.902 19 21.4286 19H3C2.5266 19 2 18.4725 2 17.9991V13H21.9543L22 18ZM22 11H2V10H22V11ZM22 8H2V6C2 5 3 5 3 5H21C21.7857 5 22 5.52576 22 5.99916V8Z" fill="#2E2E2E"/>
<path d="M19.7135 15H16.2849C15.8115 15 15.4277 15.5266 15.4277 16C15.4277 16.4734 15.8115 17 16.2849 17H19.7135C20.1869 17 20.5706 16.4734 20.5706 16C20.5706 15.5266 20.1869 15 19.7135 15Z" fill="#2E2E2E"/>
</g>
<defs>
<clipPath id="clip0">
<rect width="24" height="24" fill="white"/>
</clipPath>
</defs>
</svg>
